<mxfile host="app.diagrams.net" modified="2021-12-23T07:04:41.309Z" agent="5.0 (Windows NT 10.0; Win64; x64) AppleWebKit/537.36 (KHTML, like Gecko) Chrome/96.0.4664.110 Safari/537.36" etag="CU_7j0gH3GUSysNB67TL" version="15.9.6" type="github">
  <diagram id="kv4bornrDNrZcrvYQ2Pp" name="Page-1">
    <mxGraphModel dx="1550" dy="835" grid="1" gridSize="10" guides="1" tooltips="1" connect="1" arrows="1" fold="1" page="1" pageScale="1" pageWidth="827" pageHeight="1169" math="0" shadow="0">
      <root>
        <mxCell id="0" />
        <mxCell id="1" parent="0" />
        <mxCell id="6qnz0C2pvdTJ44aMb8UW-13" style="edgeStyle=orthogonalEdgeStyle;rounded=0;orthogonalLoop=1;jettySize=auto;html=1;entryX=0.5;entryY=0;entryDx=0;entryDy=0;" parent="1" source="6qnz0C2pvdTJ44aMb8UW-2" target="6qnz0C2pvdTJ44aMb8UW-3" edge="1">
          <mxGeometry relative="1" as="geometry" />
        </mxCell>
        <mxCell id="6qnz0C2pvdTJ44aMb8UW-2" value="Tensorflow&lt;br&gt;Compute expression" style="shape=document;whiteSpace=wrap;html=1;boundedLbl=1;fillColor=#e1d5e7;strokeColor=#9673a6;" parent="1" vertex="1">
          <mxGeometry x="230" y="50" width="120" height="40" as="geometry" />
        </mxCell>
        <mxCell id="6qnz0C2pvdTJ44aMb8UW-14" style="edgeStyle=orthogonalEdgeStyle;rounded=0;orthogonalLoop=1;jettySize=auto;html=1;entryX=0.5;entryY=0;entryDx=0;entryDy=0;" parent="1" source="6qnz0C2pvdTJ44aMb8UW-3" target="6qnz0C2pvdTJ44aMb8UW-4" edge="1">
          <mxGeometry relative="1" as="geometry" />
        </mxCell>
        <mxCell id="6qnz0C2pvdTJ44aMb8UW-3" value="Tensorflow Parser" style="rounded=1;whiteSpace=wrap;html=1;fillColor=#e1d5e7;strokeColor=#9673a6;" parent="1" vertex="1">
          <mxGeometry x="230" y="110" width="120" height="30" as="geometry" />
        </mxCell>
        <mxCell id="6qnz0C2pvdTJ44aMb8UW-16" style="edgeStyle=orthogonalEdgeStyle;rounded=0;orthogonalLoop=1;jettySize=auto;html=1;exitX=0.5;exitY=1;exitDx=0;exitDy=0;entryX=0.5;entryY=0;entryDx=0;entryDy=0;" parent="1" source="6qnz0C2pvdTJ44aMb8UW-4" target="6qnz0C2pvdTJ44aMb8UW-5" edge="1">
          <mxGeometry relative="1" as="geometry">
            <Array as="points">
              <mxPoint x="290" y="230" />
            </Array>
          </mxGeometry>
        </mxCell>
        <mxCell id="6qnz0C2pvdTJ44aMb8UW-4" value="TF Dialect" style="rounded=1;whiteSpace=wrap;html=1;fillColor=#d5e8d4;strokeColor=#82b366;" parent="1" vertex="1">
          <mxGeometry x="230" y="160" width="120" height="30" as="geometry" />
        </mxCell>
        <mxCell id="6qnz0C2pvdTJ44aMb8UW-17" style="edgeStyle=orthogonalEdgeStyle;rounded=0;orthogonalLoop=1;jettySize=auto;html=1;exitX=0.5;exitY=1;exitDx=0;exitDy=0;entryX=0.5;entryY=0;entryDx=0;entryDy=0;" parent="1" source="6qnz0C2pvdTJ44aMb8UW-5" target="6qnz0C2pvdTJ44aMb8UW-6" edge="1">
          <mxGeometry relative="1" as="geometry" />
        </mxCell>
        <mxCell id="6qnz0C2pvdTJ44aMb8UW-5" value="TcompIR" style="rounded=1;whiteSpace=wrap;html=1;fillColor=#d5e8d4;strokeColor=#82b366;" parent="1" vertex="1">
          <mxGeometry x="230" y="230" width="120" height="30" as="geometry" />
        </mxCell>
        <mxCell id="6qnz0C2pvdTJ44aMb8UW-18" style="edgeStyle=orthogonalEdgeStyle;rounded=0;orthogonalLoop=1;jettySize=auto;html=1;exitX=0.5;exitY=1;exitDx=0;exitDy=0;entryX=0.5;entryY=0;entryDx=0;entryDy=0;" parent="1" source="6qnz0C2pvdTJ44aMb8UW-6" target="6qnz0C2pvdTJ44aMb8UW-7" edge="1">
          <mxGeometry relative="1" as="geometry" />
        </mxCell>
        <mxCell id="6qnz0C2pvdTJ44aMb8UW-6" value="NvdlaIR" style="rounded=1;whiteSpace=wrap;html=1;fillColor=#d5e8d4;strokeColor=#82b366;" parent="1" vertex="1">
          <mxGeometry x="230" y="310" width="120" height="30" as="geometry" />
        </mxCell>
        <mxCell id="6qnz0C2pvdTJ44aMb8UW-7" value="CodeEmit" style="shape=document;whiteSpace=wrap;html=1;boundedLbl=1;fillColor=#f0a30a;fontColor=#000000;strokeColor=#BD7000;" parent="1" vertex="1">
          <mxGeometry x="230" y="360" width="120" height="40" as="geometry" />
        </mxCell>
        <mxCell id="6qnz0C2pvdTJ44aMb8UW-23" style="edgeStyle=orthogonalEdgeStyle;rounded=0;orthogonalLoop=1;jettySize=auto;html=1;exitX=0.5;exitY=1;exitDx=0;exitDy=0;entryX=0.5;entryY=0;entryDx=0;entryDy=0;" parent="1" source="6qnz0C2pvdTJ44aMb8UW-8" target="6qnz0C2pvdTJ44aMb8UW-9" edge="1">
          <mxGeometry relative="1" as="geometry" />
        </mxCell>
        <mxCell id="6qnz0C2pvdTJ44aMb8UW-8" value="HADL/LADL&lt;br&gt;ScheduleIR" style="rounded=1;whiteSpace=wrap;html=1;fillColor=#d5e8d4;strokeColor=#82b366;" parent="1" vertex="1">
          <mxGeometry x="420" y="230" width="120" height="30" as="geometry" />
        </mxCell>
        <mxCell id="6qnz0C2pvdTJ44aMb8UW-22" style="edgeStyle=orthogonalEdgeStyle;rounded=0;orthogonalLoop=1;jettySize=auto;html=1;exitX=0.5;exitY=1;exitDx=0;exitDy=0;entryX=0.5;entryY=0;entryDx=0;entryDy=0;" parent="1" source="6qnz0C2pvdTJ44aMb8UW-9" target="6qnz0C2pvdTJ44aMb8UW-10" edge="1">
          <mxGeometry relative="1" as="geometry" />
        </mxCell>
        <mxCell id="6qnz0C2pvdTJ44aMb8UW-9" value="Performance Analysis" style="rounded=1;whiteSpace=wrap;html=1;fillColor=#76608a;fontColor=#ffffff;strokeColor=#432D57;" parent="1" vertex="1">
          <mxGeometry x="420" y="310" width="120" height="30" as="geometry" />
        </mxCell>
        <mxCell id="6qnz0C2pvdTJ44aMb8UW-10" value="Performance Report" style="shape=document;whiteSpace=wrap;html=1;boundedLbl=1;fillColor=#76608a;fontColor=#ffffff;strokeColor=#432D57;" parent="1" vertex="1">
          <mxGeometry x="420" y="360" width="120" height="40" as="geometry" />
        </mxCell>
        <mxCell id="6qnz0C2pvdTJ44aMb8UW-20" value="" style="endArrow=classic;html=1;rounded=0;entryX=0;entryY=0;entryDx=0;entryDy=0;" parent="1" target="6qnz0C2pvdTJ44aMb8UW-8" edge="1">
          <mxGeometry width="50" height="50" relative="1" as="geometry">
            <mxPoint x="290" y="215" as="sourcePoint" />
            <mxPoint x="420" y="225" as="targetPoint" />
          </mxGeometry>
        </mxCell>
        <mxCell id="6qnz0C2pvdTJ44aMb8UW-21" value="&lt;font color=&quot;#99004d&quot;&gt;Workload mapping&lt;/font&gt;" style="text;html=1;strokeColor=none;fillColor=none;align=center;verticalAlign=middle;whiteSpace=wrap;rounded=0;" parent="1" vertex="1">
          <mxGeometry x="274" y="189" width="140" height="30" as="geometry" />
        </mxCell>
        <mxCell id="6qnz0C2pvdTJ44aMb8UW-24" value="&lt;font color=&quot;#99004d&quot;&gt;Memory Allocate&lt;/font&gt;" style="text;html=1;strokeColor=none;fillColor=none;align=center;verticalAlign=middle;whiteSpace=wrap;rounded=0;" parent="1" vertex="1">
          <mxGeometry x="270" y="260" width="140" height="30" as="geometry" />
        </mxCell>
        <mxCell id="6qnz0C2pvdTJ44aMb8UW-25" value="&lt;font color=&quot;#99004d&quot;&gt;Operation Select&lt;/font&gt;" style="text;html=1;strokeColor=none;fillColor=none;align=center;verticalAlign=middle;whiteSpace=wrap;rounded=0;" parent="1" vertex="1">
          <mxGeometry x="270" y="280" width="140" height="30" as="geometry" />
        </mxCell>
        <mxCell id="fiDL8TB61DG_aDSnvqMA-1" value="gpuModuleLoad" style="rounded=1;whiteSpace=wrap;html=1;" parent="1" vertex="1">
          <mxGeometry x="170" y="520" width="140" height="30" as="geometry" />
        </mxCell>
        <mxCell id="fiDL8TB61DG_aDSnvqMA-2" value="gpuModuleGetFunction" style="rounded=1;whiteSpace=wrap;html=1;" parent="1" vertex="1">
          <mxGeometry x="170" y="584.5" width="140" height="30" as="geometry" />
        </mxCell>
        <mxCell id="fiDL8TB61DG_aDSnvqMA-3" value="gpuStreamCreate" style="rounded=1;whiteSpace=wrap;html=1;" parent="1" vertex="1">
          <mxGeometry x="170" y="650" width="140" height="30" as="geometry" />
        </mxCell>
        <mxCell id="fiDL8TB61DG_aDSnvqMA-4" value="gpuLaunchKernel" style="rounded=1;whiteSpace=wrap;html=1;" parent="1" vertex="1">
          <mxGeometry x="170" y="710" width="140" height="30" as="geometry" />
        </mxCell>
        <mxCell id="fiDL8TB61DG_aDSnvqMA-5" value="gpuStreamSync" style="rounded=1;whiteSpace=wrap;html=1;" parent="1" vertex="1">
          <mxGeometry x="170" y="770" width="140" height="30" as="geometry" />
        </mxCell>
        <mxCell id="fiDL8TB61DG_aDSnvqMA-6" value="gpuStreamDestroy" style="rounded=1;whiteSpace=wrap;html=1;" parent="1" vertex="1">
          <mxGeometry x="170" y="830" width="140" height="30" as="geometry" />
        </mxCell>
        <mxCell id="fiDL8TB61DG_aDSnvqMA-7" value="gpuModuleUnload" style="rounded=1;whiteSpace=wrap;html=1;" parent="1" vertex="1">
          <mxGeometry x="170" y="890" width="140" height="30" as="geometry" />
        </mxCell>
        <mxCell id="fiDL8TB61DG_aDSnvqMA-9" value="1. 输入：gpubin(0,0)&lt;br&gt;2. 输出：ptr&amp;lt;i8&amp;gt;&amp;nbsp; module" style="text;html=1;strokeColor=none;fillColor=none;align=left;verticalAlign=middle;whiteSpace=wrap;rounded=0;" parent="1" vertex="1">
          <mxGeometry x="320" y="520" width="170" height="30" as="geometry" />
        </mxCell>
        <mxCell id="fiDL8TB61DG_aDSnvqMA-10" value="&lt;div&gt;&lt;span&gt;1. 输入：1，&lt;/span&gt;&lt;span&gt;func_name&lt;/span&gt;&lt;/div&gt;&lt;div&gt;&lt;span&gt;3. 输出：ptr&amp;lt;i8&amp;gt;&lt;/span&gt;&lt;/div&gt;&lt;div&gt;猜测：从gpubin中拿到func&lt;/div&gt;" style="text;html=1;strokeColor=none;fillColor=none;align=left;verticalAlign=middle;whiteSpace=wrap;rounded=0;" parent="1" vertex="1">
          <mxGeometry x="320" y="580" width="170" height="30" as="geometry" />
        </mxCell>
        <mxCell id="fiDL8TB61DG_aDSnvqMA-11" value="&lt;div&gt;&lt;span&gt;1. 无输入&lt;/span&gt;&lt;/div&gt;&lt;div&gt;&lt;span&gt;2. 输出：ptr&amp;lt;i8&amp;gt;&lt;/span&gt;&lt;/div&gt;" style="text;html=1;strokeColor=none;fillColor=none;align=left;verticalAlign=middle;whiteSpace=wrap;rounded=0;" parent="1" vertex="1">
          <mxGeometry x="320" y="650" width="170" height="30" as="geometry" />
        </mxCell>
        <mxCell id="fiDL8TB61DG_aDSnvqMA-12" value="&lt;div&gt;&lt;span&gt;1. 输入：func_name, grid_x,y,z, block_x,y,z, sharedMemBytes, hstream, kernelParams, extra&amp;nbsp;&amp;nbsp;&lt;/span&gt;&lt;/div&gt;&lt;div&gt;&lt;span&gt;2. 输出：无&lt;/span&gt;&lt;/div&gt;" style="text;html=1;strokeColor=none;fillColor=none;align=left;verticalAlign=middle;whiteSpace=wrap;rounded=0;" parent="1" vertex="1">
          <mxGeometry x="320" y="710" width="320" height="30" as="geometry" />
        </mxCell>
        <mxCell id="fiDL8TB61DG_aDSnvqMA-13" value="&lt;div&gt;&lt;span&gt;1. 输入： 3&amp;nbsp;&amp;nbsp;&lt;/span&gt;&lt;/div&gt;&lt;div&gt;&lt;span&gt;2. 输出：无&lt;/span&gt;&lt;/div&gt;" style="text;html=1;strokeColor=none;fillColor=none;align=left;verticalAlign=middle;whiteSpace=wrap;rounded=0;" parent="1" vertex="1">
          <mxGeometry x="320" y="770" width="170" height="30" as="geometry" />
        </mxCell>
        <mxCell id="fiDL8TB61DG_aDSnvqMA-14" value="&lt;div&gt;&lt;span&gt;1. 输入： 3&amp;nbsp;&amp;nbsp;&lt;/span&gt;&lt;/div&gt;&lt;div&gt;&lt;span&gt;2. 输出：无&lt;/span&gt;&lt;/div&gt;" style="text;html=1;strokeColor=none;fillColor=none;align=left;verticalAlign=middle;whiteSpace=wrap;rounded=0;" parent="1" vertex="1">
          <mxGeometry x="320" y="830" width="170" height="30" as="geometry" />
        </mxCell>
        <mxCell id="fiDL8TB61DG_aDSnvqMA-15" value="&lt;div&gt;&lt;span&gt;1. 输入： 3&amp;nbsp;&amp;nbsp;&lt;/span&gt;&lt;/div&gt;&lt;div&gt;&lt;span&gt;2. 输出：无&lt;/span&gt;&lt;/div&gt;" style="text;html=1;strokeColor=none;fillColor=none;align=left;verticalAlign=middle;whiteSpace=wrap;rounded=0;" parent="1" vertex="1">
          <mxGeometry x="320" y="830" width="170" height="30" as="geometry" />
        </mxCell>
        <mxCell id="fiDL8TB61DG_aDSnvqMA-16" value="&lt;div&gt;&lt;span&gt;1. 输入： 1&amp;nbsp;&lt;/span&gt;&lt;/div&gt;&lt;div&gt;&lt;span&gt;2. 输出：无&lt;/span&gt;&lt;/div&gt;" style="text;html=1;strokeColor=none;fillColor=none;align=left;verticalAlign=middle;whiteSpace=wrap;rounded=0;" parent="1" vertex="1">
          <mxGeometry x="320" y="890" width="170" height="30" as="geometry" />
        </mxCell>
      </root>
    </mxGraphModel>
  </diagram>
</mxfile>
